<?xml version="1.0" encoding="UTF-8"?>
<svg version="1.1" xmlns="http://www.w3.org/2000/svg" width="96" height="96">
<path d="M0 0 C1.24716797 0.00966797 2.49433594 0.01933594 3.77929688 0.02929688 C5.07287109 0.05443359 6.36644531 0.07957031 7.69921875 0.10546875 C9.66858398 0.12577148 9.66858398 0.12577148 11.67773438 0.14648438 C14.91447952 0.18179432 18.1503898 0.23111595 21.38671875 0.29296875 C22.51171875 2.60546875 22.51171875 2.60546875 23.38671875 5.29296875 C22.72671875 6.28296875 22.06671875 7.27296875 21.38671875 8.29296875 C19.21948242 8.67773438 19.21948242 8.67773438 16.5546875 8.69921875 C15.59111328 8.72113281 14.62753906 8.74304687 13.63476562 8.765625 C12.62478516 8.77464844 11.61480469 8.78367187 10.57421875 8.79296875 C1.87161701 8.50854412 1.87161701 8.50854412 -5.61328125 12.29296875 C-6.93019805 16.24371914 -6.79565407 20.03996237 -6.81640625 24.16015625 C-6.82210632 25.03189484 -6.8278064 25.90363342 -6.8336792 26.80178833 C-6.84312308 28.64600411 -6.84966075 30.49023672 -6.85351562 32.33447266 C-6.86322058 35.15036561 -6.89424911 37.96552834 -6.92578125 40.78125 C-6.93231168 42.57421442 -6.937562 44.36718406 -6.94140625 46.16015625 C-6.95375305 46.99988983 -6.96609985 47.83962341 -6.9788208 48.70480347 C-6.96116312 53.35748401 -6.73068658 56.56833596 -3.61328125 60.29296875 C0.33746914 61.60988555 4.13371237 61.47534157 8.25390625 61.49609375 C9.56151413 61.50464386 9.56151413 61.50464386 10.89553833 61.5133667 C12.73975411 61.52281058 14.58398672 61.52934825 16.42822266 61.53320312 C19.24411561 61.54290808 22.05927834 61.57393661 24.875 61.60546875 C26.66796442 61.61199918 28.46093406 61.6172495 30.25390625 61.62109375 C31.51350662 61.63961395 31.51350662 61.63961395 32.79855347 61.6585083 C37.45123401 61.64085062 40.66208596 61.41037408 44.38671875 58.29296875 C45.35988685 55.37346445 45.57967335 53.23851924 45.703125 50.1875 C45.7659668 48.71313477 45.7659668 48.71313477 45.83007812 47.20898438 C45.86939453 46.18482422 45.90871094 45.16066406 45.94921875 44.10546875 C46.01399414 42.55182617 46.01399414 42.55182617 46.08007812 40.96679688 C46.18616241 38.40898685 46.28822021 35.8510803 46.38671875 33.29296875 C48.69921875 32.16796875 48.69921875 32.16796875 51.38671875 31.29296875 C52.37671875 31.95296875 53.36671875 32.61296875 54.38671875 33.29296875 C55.06632096 37.83788551 54.84941112 42.45337634 54.82421875 47.04296875 C54.84419922 48.31914063 54.86417969 49.5953125 54.88476562 50.91015625 C54.87857151 62.77808085 54.87857151 62.77808085 50.38671875 67.29296875 C45.47981215 71.43586961 39.82274155 70.74291784 33.734375 70.7265625 C32.60148544 70.73180435 31.46859589 70.7370462 30.30137634 70.7424469 C27.90836404 70.74886303 25.51532018 70.74753543 23.12231445 70.73901367 C19.46573579 70.73050717 15.81072114 70.75926771 12.15429688 70.79101562 C9.82682338 70.79262786 7.49934713 70.79204969 5.171875 70.7890625 C4.08109146 70.80029648 2.99030792 70.81153046 1.86647034 70.82310486 C-4.08923253 70.76857012 -8.04932944 70.54141279 -12.61328125 66.29296875 C-16.87679319 61.62839716 -16.06288605 55.60082929 -16.046875 49.640625 C-16.05211685 48.50773544 -16.0573587 47.37484589 -16.0627594 46.20762634 C-16.06917553 43.81461404 -16.06784793 41.42157018 -16.05932617 39.02856445 C-16.05081967 35.37198579 -16.07958021 31.71697114 -16.11132812 28.06054688 C-16.11294036 25.73307338 -16.11236219 23.40559713 -16.109375 21.078125 C-16.12060898 19.98734146 -16.13184296 18.89655792 -16.14341736 17.77272034 C-16.08888262 11.81701747 -15.86172529 7.85692056 -11.61328125 3.29296875 C-7.76118119 0.23213697 -4.85337174 -0.06648454 0 0 Z " fill="#FFFFFF" transform="translate(25.61328125,15.70703125)"/>
<path d="M0 0 C1.56405443 3.27617951 1.02444542 6.95800084 0.87890625 10.515625 C0.83056641 11.76601563 0.78222656 13.01640625 0.73242188 14.3046875 C0.67634766 15.60664063 0.62027344 16.90859375 0.5625 18.25 C0.51029297 19.56742188 0.45808594 20.88484375 0.40429688 22.2421875 C0.27465443 25.49503428 0.13968844 28.74757167 0 32 C-2.3125 33.125 -2.3125 33.125 -5 34 C-5.99 33.34 -6.98 32.68 -8 32 C-8.38384509 29.06402461 -8.603843 26.31972627 -8.6875 23.375 C-8.72166016 22.57320312 -8.75582031 21.77140625 -8.79101562 20.9453125 C-8.87356878 18.96403682 -8.93845916 16.98203963 -9 15 C-9.76666992 15.78238037 -10.53333984 16.56476074 -11.32324219 17.37084961 C-14.17073211 20.27265571 -17.02815231 23.16450887 -19.88867188 26.0534668 C-21.1251278 27.30500541 -22.35887732 28.55922385 -23.58984375 29.81616211 C-25.36012675 31.62285013 -27.13993219 33.41966403 -28.921875 35.21484375 C-29.46994812 35.77840073 -30.01802124 36.3419577 -30.58270264 36.92259216 C-35.23057914 41.57249308 -35.23057914 41.57249308 -39 42 C-41.25 40.0625 -41.25 40.0625 -43 38 C-41.56593018 33.2766748 -38.79353907 30.40078501 -35.3359375 27.04296875 C-34.78386627 26.49514236 -34.23179504 25.94731598 -33.66299438 25.38288879 C-31.90727578 23.64389177 -30.14139137 21.91564842 -28.375 20.1875 C-27.179 19.00655523 -25.98367961 17.82492177 -24.7890625 16.64257812 C-21.86837425 13.75231371 -18.93416117 10.87683675 -16 8 C-21.61 7.67 -27.22 7.34 -33 7 C-33.66 5.35 -34.32 3.7 -35 2 C-34.34 1.01 -33.68 0.02 -33 -1 C-30.28198242 -1.46411133 -30.28198242 -1.46411133 -26.85546875 -1.58203125 C-25.62119141 -1.62650391 -24.38691406 -1.67097656 -23.11523438 -1.71679688 C-21.81908203 -1.74837891 -20.52292969 -1.77996094 -19.1875 -1.8125 C-17.90294922 -1.86341797 -16.61839844 -1.91433594 -15.29492188 -1.96679688 C-4.00244796 -2.31362455 -4.00244796 -2.31362455 0 0 Z " fill="#FFFFFF" transform="translate(86,11)"/>
</svg>
