<?xml version="1.0" encoding="UTF-8"?>
<svg version="1.1" xmlns="http://www.w3.org/2000/svg" width="96" height="96">
<path d="M0 0 C0.96244629 0.00580078 1.92489258 0.01160156 2.91650391 0.01757812 C13.70448787 0.37169718 21.71951058 4.145869 29.8125 11.375 C39.76778621 22.293701 41.00919912 34.28561427 40.48730469 48.29150391 C39.43440879 62.72323624 27.55653124 72.83815772 17.95068359 82.47485352 C16.17167804 84.26592931 14.41220252 86.07489701 12.65234375 87.88476562 C11.5167724 89.02978491 10.38009326 90.17370685 9.2421875 91.31640625 C8.72123505 91.85689102 8.20028259 92.39737579 7.6635437 92.95423889 C5.52829346 95.06340734 3.77924997 96.54664479 0.88305664 97.4206543 C-3.28304633 96.23243061 -5.74965636 93.35759916 -8.74609375 90.328125 C-9.41286636 89.66850769 -10.07963898 89.00889038 -10.76661682 88.32928467 C-12.1772325 86.92645606 -13.58146319 85.5171822 -14.97973633 84.10205078 C-17.09505736 81.96771184 -19.23768391 79.86404384 -21.38476562 77.76171875 C-33.56834924 65.65268582 -39.99204339 55.54116247 -40.07470703 38.11401367 C-39.89784565 27.65037754 -36.11551636 18.19973423 -28.6875 10.6875 C-20.03487698 3.65417694 -11.15773962 -0.08611481 0 0 Z M-23.3125 19.5 C-30.05640089 28.55102488 -31.57901364 36.60091869 -30.484375 47.7578125 C-28.3631825 59.14769396 -18.18793702 67.57862636 -10.25 75.3125 C-9.22130008 76.32610778 -8.1933006 77.34042696 -7.16601562 78.35546875 C-4.68117251 80.80770708 -2.18707985 83.25027374 0.3125 85.6875 C6.12149481 80.84145177 11.55786934 75.69158812 16.9375 70.375 C17.77023438 69.57126953 18.60296875 68.76753906 19.4609375 67.93945312 C27.59010608 59.89442403 32.145114 52.86601076 32.5 41.3125 C32.32501832 31.79985959 29.1217622 24.99062286 22.71484375 17.92578125 C15.14538348 10.82158331 6.76624816 9.04307625 -3.4140625 9.36328125 C-11.4078141 10.15502514 -17.82511261 13.62065637 -23.3125 19.5 Z " fill="#FFFFFF" transform="translate(47.6875,-0.6875)"/>
<path d="M0 0 C4.56454261 3.37695365 6.70725097 7.04353169 8.125 12.5 C9.13390153 19.56231068 6.97879885 24.56703991 3.125 30.5 C-2.40385317 35.89721381 -7.81235331 36.03050794 -15.27734375 35.96875 C-20.92663315 35.23268623 -24.2767264 32.82942965 -27.875 28.5 C-30.86569202 23.64736101 -31.7980441 18.13375194 -30.875 12.5 C-29.14044228 6.09631836 -26.26686945 2.3849082 -20.875 -1.40625 C-14.17308718 -5.07135858 -6.36957275 -3.80068721 0 0 Z M-20.875 11.5 C-22.00572534 14.89217603 -22.41270039 17.07367895 -21.1328125 20.46875 C-19.39332225 23.75894862 -18.47233651 25.30088783 -14.875 26.5 C-11.19117231 26.63156527 -8.38446415 26.66982138 -4.875 25.5 C-2.44875311 22.51918239 -1.02424406 20.29596829 -0.3125 16.5 C-1.10582387 12.26893936 -2.87719549 10.5691808 -5.875 7.5 C-11.96978322 4.45260839 -16.64353376 6.76478778 -20.875 11.5 Z " fill="#FFFFFF" transform="translate(59.875,22.5)"/>
</svg>
