<?xml version="1.0" encoding="UTF-8"?>
<svg version="1.1" xmlns="http://www.w3.org/2000/svg" width="96" height="96">
<path d="M0 0 C3.42482707 1.61776117 5.65690522 3.42343244 8.328125 6.1328125 C9.12734375 6.93847656 9.9265625 7.74414062 10.75 8.57421875 C11.575 9.41597656 12.4 10.25773437 13.25 11.125 C14.09046875 11.97449219 14.9309375 12.82398438 15.796875 13.69921875 C17.86915683 15.79504923 19.93662393 17.89540713 22 20 C19.87597379 24.4164774 17.4337097 27.8603846 13.5625 30.9375 C10.58498621 33.33403549 8.41421701 36.04258417 6 39 C2.97022341 42.19809751 -0.24865504 45.10377543 -3.5625 48 C-6.75193285 50.8045922 -9.38972909 53.64393741 -12 57 C-12.804375 57.639375 -13.60875 58.27875 -14.4375 58.9375 C-17.41501379 61.33403549 -19.58578299 64.04258417 -22 67 C-23.6222454 68.70993434 -25.29413425 70.37347684 -27 72 C-27.53069092 72.58281738 -28.06138184 73.16563477 -28.6081543 73.76611328 C-32.41218865 77.62311456 -35.0939532 79.4622599 -40.59375 79.68359375 C-42.56381354 79.64415613 -44.53299046 79.5540297 -46.5 79.4375 C-48.37294224 79.35698442 -50.24599932 79.27911251 -52.11914062 79.20336914 C-53.0403772 79.16498428 -53.96161377 79.12659943 -54.9107666 79.08705139 C-55.60021362 79.05832443 -56.28966064 79.02959747 -57 79 C-59.0190654 71.41866526 -59.66311793 64.51337986 -57 57 C-50.49995457 46.1951937 -39.72649684 37.55707808 -30.57696533 29.06634521 C-27.09847976 25.81499517 -23.68322845 22.4985729 -20.26171875 19.1875 C-13.56729123 12.72736963 -6.80697207 6.34128947 0 0 Z " fill="#FFFFFF" transform="translate(57,17)"/>
<path d="M0 0 C5.03024929 0.66603095 8.04795235 4.94280784 11.48779297 8.40844727 C12.28443359 9.16061523 13.08107422 9.9127832 13.90185547 10.68774414 C19.54248135 16.30405698 19.54248135 16.30405698 19.87060547 21.16625977 C18.52838083 24.55933695 17.48434705 25.96888728 14.61279297 28.15844727 C11.6382435 30.36056079 11.6382435 30.36056079 9.61279297 33.34594727 C6.04515011 31.83218645 3.7757301 29.74081598 1.06591797 26.99438477 C0.22158203 26.14360352 -0.62275391 25.29282227 -1.49267578 24.41625977 C-2.80171875 23.08208008 -2.80171875 23.08208008 -4.13720703 21.72094727 C-5.02537109 20.82375977 -5.91353516 19.92657227 -6.82861328 19.00219727 C-9.01937673 16.78787723 -11.20533466 14.56902292 -13.38720703 12.34594727 C-12.44075688 11.24033773 -11.49410216 10.13490332 -10.54736328 9.02954102 C-10.02021729 8.41393311 -9.49307129 7.7983252 -8.94995117 7.1640625 C-3.18942991 0.46220313 -3.18942991 0.46220313 0 0 Z " fill="#FFFFFF" transform="translate(76.38720703125,-0.345947265625)"/>
</svg>
