<?xml version="1.0" encoding="UTF-8"?>
<svg version="1.1" xmlns="http://www.w3.org/2000/svg" width="96" height="96">
<path d="M0 0 C0.78890625 -0.00257813 1.5778125 -0.00515625 2.390625 -0.0078125 C3.21046875 -0.00007812 4.0303125 0.00765625 4.875 0.015625 C6.10476562 0.00402344 6.10476562 0.00402344 7.359375 -0.0078125 C8.54273437 -0.00394531 8.54273437 -0.00394531 9.75 0 C10.46929687 0.00225586 11.18859375 0.00451172 11.9296875 0.00683594 C13.875 0.265625 13.875 0.265625 16.875 2.265625 C17.5703125 4.61328125 17.5703125 4.61328125 18 7.328125 C18.30654347 10.59747115 18.30654347 10.59747115 19.875 13.265625 C24.05638099 13.55160885 24.05638099 13.55160885 27.9375 12.203125 C30.67480284 10.87862363 32.01075768 11.32659945 34.875 12.265625 C36.82421875 14.375 36.82421875 14.375 38.5625 17.015625 C39.14386719 17.87671875 39.72523437 18.7378125 40.32421875 19.625 C42.29016646 22.97255832 43.875 25.84047306 43.875 29.765625 C42.875 32.265625 42.875 32.265625 39.8125 34.703125 C36.66540975 36.97337134 36.66540975 36.97337134 36.0625 40.203125 C36.98786943 43.69105593 37.67966742 44.14464131 40.4375 46.265625 C42.3671875 47.7734375 42.3671875 47.7734375 43.875 49.265625 C44.27743055 55.4362267 40.03035779 61.91978885 36.5 66.828125 C33.875 69.265625 33.875 69.265625 30.6875 69.203125 C27.875 68.265625 27.875 68.265625 25.875 67.265625 C23.87539988 67.225633 21.87452758 67.22215701 19.875 67.265625 C18.26985815 69.94086142 17.81965042 71.72423584 17.4375 74.890625 C17.251875 76.004375 17.06625 77.118125 16.875 78.265625 C13.82526315 80.2987829 13.18543132 80.5204758 9.75 80.53125 C8.96109375 80.53382812 8.1721875 80.53640625 7.359375 80.5390625 C6.53953125 80.53132813 5.7196875 80.52359375 4.875 80.515625 C4.05515625 80.52335937 3.2353125 80.53109375 2.390625 80.5390625 C1.20726563 80.53519531 1.20726563 80.53519531 0 80.53125 C-0.71929687 80.52899414 -1.43859375 80.52673828 -2.1796875 80.52441406 C-4.125 80.265625 -4.125 80.265625 -7.125 78.265625 C-7.8203125 75.91796875 -7.8203125 75.91796875 -8.25 73.203125 C-8.55654347 69.93377885 -8.55654347 69.93377885 -10.125 67.265625 C-14.30638099 66.97964115 -14.30638099 66.97964115 -18.1875 68.328125 C-20.92480284 69.65262637 -22.26075768 69.20465055 -25.125 68.265625 C-27.07421875 66.15625 -27.07421875 66.15625 -28.8125 63.515625 C-29.39386719 62.65453125 -29.97523437 61.7934375 -30.57421875 60.90625 C-32.54016646 57.55869168 -34.125 54.69077694 -34.125 50.765625 C-33.125 48.265625 -33.125 48.265625 -30.0625 45.828125 C-26.91540975 43.55787866 -26.91540975 43.55787866 -26.3125 40.328125 C-27.23786943 36.84019407 -27.92966742 36.38660869 -30.6875 34.265625 C-32.6171875 32.7578125 -32.6171875 32.7578125 -34.125 31.265625 C-34.52743055 25.0950233 -30.28035779 18.61146115 -26.75 13.703125 C-24.125 11.265625 -24.125 11.265625 -20.9375 11.328125 C-18.125 12.265625 -18.125 12.265625 -16.125 13.265625 C-14.12539988 13.305617 -12.12452758 13.30909299 -10.125 13.265625 C-8.51985815 10.59038858 -8.06965042 8.80701416 -7.6875 5.640625 C-7.501875 4.526875 -7.31625 3.413125 -7.125 2.265625 C-4.07526315 0.2324671 -3.43543132 0.0107742 0 0 Z M-0.125 7.265625 C-0.516875 8.668125 -0.90875 10.070625 -1.3125 11.515625 C-2.78386271 15.8014751 -3.89455469 18.19540708 -8.125 20.265625 C-12.67421459 20.76057955 -16.77139952 20.71682516 -21.125 19.265625 C-22.775 21.905625 -24.425 24.545625 -26.125 27.265625 C-25.135 28.379375 -24.145 29.493125 -23.125 30.640625 C-20.1053918 34.70990652 -19.23463578 37.74686712 -19.515625 42.7890625 C-20.60096432 47.1999928 -23.13845615 49.90576317 -26.125 53.265625 C-24.475 55.905625 -22.825 58.545625 -21.125 61.265625 C-19.64 60.770625 -19.64 60.770625 -18.125 60.265625 C-13.4517433 59.78245778 -9.45658432 59.61399863 -5.1875 61.703125 C-2.27463909 65.32213401 -1.37324486 68.79822235 -0.125 73.265625 C3.175 73.265625 6.475 73.265625 9.875 73.265625 C10.266875 71.863125 10.65875 70.460625 11.0625 69.015625 C12.53386271 64.7297749 13.64455469 62.33584292 17.875 60.265625 C22.42421459 59.77067045 26.52139952 59.81442484 30.875 61.265625 C32.525 58.625625 34.175 55.985625 35.875 53.265625 C34.39 51.595 34.39 51.595 32.875 49.890625 C29.8553918 45.82134348 28.98463578 42.78438288 29.265625 37.7421875 C30.35096432 33.3312572 32.88845615 30.62548683 35.875 27.265625 C33.4 23.305625 33.4 23.305625 30.875 19.265625 C29.885 19.595625 28.895 19.925625 27.875 20.265625 C23.2017433 20.74879222 19.20658432 20.91725137 14.9375 18.828125 C12.02463909 15.20911599 11.12324486 11.73302765 9.875 7.265625 C6.575 7.265625 3.275 7.265625 -0.125 7.265625 Z " fill="#FFFFFF" transform="translate(43.125,7.734375)"/>
<path d="M0 0 C4.8846525 2.26787438 7.73212562 5.1153475 10 10 C10.75381535 15.5997712 10.77303575 20.33499991 8.375 25.5 C3.80134327 30.3143755 0.6912538 32.25156236 -6 32.5 C-12.6912538 32.25156236 -15.80134327 30.3143755 -20.375 25.5 C-22.77303575 20.33499991 -22.75381535 15.5997712 -22 10 C-17.52212837 0.3553534 -9.85292056 -1.32635469 0 0 Z M-15 12 C-15.69847125 14.8396864 -15.69847125 17.1603136 -15 20 C-13.01078114 22.9838283 -11.61497432 24.60276841 -8.0625 25.4765625 C-4.13936508 25.75890933 -2.32887629 25.21925086 1 23 C3.21925086 19.67112371 3.75890933 17.86063492 3.4765625 13.9375 C2.60276841 10.38502568 0.9838283 8.98921886 -2 7 C-7.81663203 5.56929615 -11.60814906 6.91222359 -15 12 Z " fill="#FFFFFF" transform="translate(54,32)"/>
</svg>
