<?xml version="1.0" encoding="UTF-8"?>
<svg version="1.1" xmlns="http://www.w3.org/2000/svg" width="96" height="96">
<path d="M0 0 C0 1.32 0 2.64 0 4 C5.28 4 10.56 4 16 4 C16 27.76 16 51.52 16 76 C-7.76 76 -31.52 76 -56 76 C-56 64.12 -56 52.24 -56 40 C-52 39 -52 39 -50 40 C-50 49.9 -50 59.8 -50 70 C-30.2 70 -10.4 70 10 70 C10 56.8 10 43.6 10 30 C-1.22 30 -12.44 30 -24 30 C-25 26 -25 26 -24 24 C-12.78 24 -1.56 24 10 24 C10 19.38 10 14.76 10 10 C6.7 10 3.4 10 0 10 C0 11.98 0 13.96 0 16 C-3.75 17.125 -3.75 17.125 -6 16 C-6 14.02 -6 12.04 -6 10 C-10.62 10 -15.24 10 -20 10 C-21 6 -21 6 -20 4 C-15.38 4 -10.76 4 -6 4 C-6 2.68 -6 1.36 -6 0 C-3.50907189 -1.24546405 -2.58919267 -0.7767578 0 0 Z " fill="#FFFFFF" transform="translate(68,8)"/>
<path d="M0 0 C4.97779304 2.65997367 8.91970505 6.97786514 10.69921875 12.31640625 C11.36693511 19.8234459 11.83345259 26.54693117 7.1328125 32.765625 C3.32898558 36.88039145 0.25929565 39.12021945 -5.41015625 39.5546875 C-17.74761261 39.80620217 -17.74761261 39.80620217 -23.30078125 35.31640625 C-28.21819403 30.37318028 -29.47224885 26.48441677 -29.61328125 19.56640625 C-29.54862936 12.59118556 -28.84203132 8.83916415 -23.8046875 3.828125 C-17.4016305 -1.84041673 -8.10463009 -2.40799706 0 0 Z M-20.30078125 10.31640625 C-23.04035634 14.75640725 -22.95609132 19.24974057 -22.30078125 24.31640625 C-20.23590643 28.4461559 -18.55492575 30.61167686 -14.30078125 32.31640625 C-9.28262136 33.02855435 -5.3590363 32.84553378 -0.80078125 30.56640625 C2.18931666 27.87531813 3.46835399 25.94319747 4.03515625 21.94921875 C4.12422229 16.23117868 3.69308532 12.75403577 -0.30078125 8.31640625 C-6.8698809 4.263132 -14.66376493 5.24309156 -20.30078125 10.31640625 Z " fill="#FFFFFF" transform="translate(29.30078125,0.68359375)"/>
<path d="M0 0 C2.5 0.125 2.5 0.125 3.5 1.125 C3.54092937 3.45797433 3.54241723 5.79205225 3.5 8.125 C4.16 8.125 4.82 8.125 5.5 8.125 C6.125 10.5 6.125 10.5 6.5 13.125 C5.84 13.785 5.18 14.445 4.5 15.125 C1.05834679 14.77200993 -0.56872538 14.07918308 -3.5 12.125 C-3.828125 9.55859375 -3.828125 9.55859375 -3.75 6.5625 C-3.73453125 5.57121094 -3.7190625 4.57992188 -3.703125 3.55859375 C-3.4268398 0.24848447 -3.32809658 0.16640483 0 0 Z " fill="#FFFFFF" transform="translate(20.5,10.875)"/>
</svg>
